<svg width="75" height="50" viewBox="0 0 75 50" fill="none" xmlns="http://www.w3.org/2000/svg">
<path d="M48.5031 32.7948L33.2654 6.29253L44.2122 7.62939e-06L63.1603 32.7948H48.5031Z" fill="#463B24"/>
<path d="M7.91626 29.0816L18.8631 22.7466L24.6552 32.7948H10.0405L7.91626 29.0816Z" fill="#463B24"/>
<path d="M29.3993 49.7024H32.5148V37.089H29.3993V49.7024Z" fill="#463B24"/>
<path d="M68.4425 50C64.9588 50 62.8629 48.2001 62.7496 45.6633H66.0351C66.0351 46.4569 66.5307 47.6191 68.655 47.6616C70.0711 47.6616 70.7367 46.8254 70.7367 46.2018C70.6517 45.2098 69.4055 45.1247 68.0743 44.9121C66.7432 44.6996 65.6102 44.4586 64.7889 44.0335C63.7409 43.4949 63.0328 42.3328 63.0328 41.0006C63.0328 38.7472 64.9871 36.9615 68.2443 36.9615C71.4023 36.9615 73.3991 38.6196 73.6115 41.0856H70.4393C70.411 40.4195 70.2835 39.3708 68.4142 39.3708C67.1538 39.3708 66.3183 39.6259 66.2475 40.5046C66.2475 41.7942 68.8674 41.7092 70.9066 42.2477C72.8609 42.7438 74.1071 43.9626 74.1071 45.6633C74.1071 48.7954 71.5722 50 68.4425 50Z" fill="#463B24"/>
<path d="M20.7466 17.8288L31.6934 11.508L43.9714 32.7948H32.5148V35.9127H29.3993V32.7806L20.7466 17.8288Z" fill="#463B24"/>
<path fill-rule="evenodd" clip-rule="evenodd" d="M21.0298 50C17.4045 50 14.4589 47.038 14.4589 43.4524C14.4589 39.8243 17.4045 36.9615 21.0298 36.9615C22.4035 36.9615 23.6497 37.3299 24.7401 38.0811V32.7948H27.8557V49.7024H24.7401V48.8662C23.6497 49.5748 22.4035 50 21.0298 50ZM17.447 43.4524C17.447 45.4082 19.118 47.038 21.1148 47.038C23.0691 47.038 24.7401 45.4082 24.7401 43.4524C24.7401 41.4966 23.0691 39.8243 21.1148 39.8243C19.118 39.8243 17.447 41.4966 17.447 43.4524Z" fill="#463B24"/>
<path fill-rule="evenodd" clip-rule="evenodd" d="M44.0564 32.7948H47.1295V49.7024H44.0564V48.8662C43.0085 49.5748 41.7198 50 40.3036 50C36.7208 50 33.7752 47.038 33.7752 43.4524C33.7752 39.8243 36.7208 36.9615 40.3036 36.9615C41.7198 36.9615 42.966 37.3299 44.0564 38.0811V32.7948ZM36.8057 43.4524C36.8057 45.4082 38.4768 47.038 40.3886 47.038C42.3854 47.038 44.0564 45.4082 44.0564 43.4524C44.0564 41.4966 42.3854 39.8243 40.3886 39.8243C38.4768 39.8243 36.8057 41.4966 36.8057 43.4524Z" fill="#463B24"/>
<path fill-rule="evenodd" clip-rule="evenodd" d="M54.7059 50C51.1372 50 48.1774 47.038 48.1774 43.4524C48.1774 39.8243 51.1372 36.9615 54.7059 36.9615C56.0796 36.9615 57.3682 37.3299 58.4162 38.0811V37.0749H61.5317V49.7024H58.4162V48.8662C57.3682 49.5748 56.122 50 54.7059 50ZM51.208 43.4524C51.208 45.4082 52.879 47.038 54.8333 47.038C56.7876 47.038 58.4162 45.4082 58.4162 43.4524C58.4162 41.4966 56.7876 39.8243 54.8333 39.8243C52.879 39.8243 51.208 41.4966 51.208 43.4524Z" fill="#463B24"/>
<path fill-rule="evenodd" clip-rule="evenodd" d="M3.00224 43.4524C3.00224 45.4082 4.6733 47.038 6.62758 47.038C8.62435 47.038 10.2954 45.4082 10.2954 43.4524C10.2954 41.4966 8.62435 39.8243 6.62758 39.8243C4.6733 39.8243 3.00224 41.4966 3.00224 43.4524ZM6.54261 50C2.95975 50 0 47.038 0 43.4524C0 39.8243 2.95975 36.9615 6.54261 36.9615C7.91628 36.9615 9.20498 37.3299 10.2954 38.0811V37.0749H13.3685V49.7024H10.2954V48.8662C9.24746 49.5748 7.95876 50 6.54261 50Z" fill="#463B24"/>
</svg>
