<svg width="251" height="59" viewBox="0 0 251 59" fill="none" xmlns="http://www.w3.org/2000/svg">
<path d="M0.955869 24.2737C2.6759 17.3425 6.65945 11.1873 12.2722 6.78852C17.885 2.38967 24.8043 0 31.9284 0C39.0524 0 45.9717 2.38967 51.5845 6.78852C57.1974 11.1873 61.1808 17.3425 62.9009 24.2737H60.1032C55.3838 24.2041 50.7611 25.6182 46.8842 28.3175C46.6604 28.48 46.4268 28.6284 46.1848 28.7616H45.8584C45.6164 28.6284 45.3828 28.48 45.159 28.3175C41.2479 25.6806 36.6415 24.2723 31.9284 24.2723C27.2152 24.2723 22.6089 25.6806 18.6977 28.3175C18.4739 28.48 18.2403 28.6284 17.9983 28.7616H17.6719C17.4299 28.6284 17.1963 28.48 16.9725 28.3175C13.0956 25.6182 8.47297 24.2041 3.75354 24.2737H0.955869ZM55.0674 38.9295C56.5035 37.8083 58.2836 37.2216 60.1032 37.27H63.8567V29.7667H60.1032C56.898 29.7279 53.7663 30.7281 51.174 32.6184C49.7152 33.6967 47.9506 34.2785 46.1382 34.2785C44.3258 34.2785 42.5611 33.6967 41.1024 32.6184C38.4444 30.7634 35.2835 29.7688 32.0449 29.7688C28.8064 29.7688 25.6455 30.7634 22.9875 32.6184C21.5287 33.6967 19.7641 34.2785 17.9517 34.2785C16.1393 34.2785 14.3746 33.6967 12.9159 32.6184C10.2917 30.7038 7.11493 29.7025 3.87011 29.7667H0V37.27H3.75354C5.57321 37.2216 7.3532 37.8083 8.78934 38.9295C11.4425 40.7859 14.5999 41.7812 17.8351 41.7812C21.0704 41.7812 24.2278 40.7859 26.8809 38.9295C28.3189 37.8118 30.0975 37.2255 31.9167 37.27C33.7371 37.2176 35.5182 37.8048 36.9525 38.9295C39.6105 40.7848 42.7714 41.7791 46.01 41.7791C49.2485 41.7791 52.4094 40.7848 55.0674 38.9295ZM55.0674 52.3465C56.5035 51.2252 58.2836 50.6385 60.1032 50.6869H63.8567V43.1837H60.1032C56.898 43.1449 53.7663 44.1451 51.174 46.0354C49.7152 47.1137 47.9506 47.6954 46.1382 47.6954C44.3258 47.6954 42.5611 47.1137 41.1024 46.0354C38.4444 44.1804 35.2835 43.186 32.0449 43.186C28.8064 43.186 25.6455 44.1804 22.9875 46.0354C21.5287 47.1137 19.7641 47.6954 17.9517 47.6954C16.1393 47.6954 14.3746 47.1137 12.9159 46.0354C10.2917 44.121 7.11493 43.1194 3.87011 43.1837H0V50.6869H3.75354C5.57321 50.6385 7.3532 51.2252 8.78934 52.3465C11.4425 54.2029 14.5999 55.1982 17.8351 55.1982C21.0704 55.1982 24.2278 54.2029 26.8809 52.3465C28.3189 51.2287 30.0975 50.6425 31.9167 50.6869C33.7371 50.6346 35.5182 51.2217 36.9525 52.3465C39.6105 54.2017 42.7714 55.1961 46.01 55.1961C49.2485 55.1961 52.4094 54.2017 55.0674 52.3465Z" fill="white"/>
<path d="M76.5107 44.4938V42.2482L80.5445 41.7492V19.8339L76.885 19.418V17.1724H87.8634L94.6418 35.4698L101.004 17.1724H111.525V19.418L108.573 19.7507C108.545 21.4418 108.517 23.1607 108.49 24.9072C108.49 26.6261 108.49 28.3449 108.49 30.0638V31.6024C108.49 33.3213 108.49 35.0401 108.49 36.759C108.517 38.4778 108.545 40.1967 108.573 41.9155L111.65 42.2482V44.4938H98.3844V42.2482L101.42 41.8739C101.476 40.1828 101.489 38.5333 101.462 36.9253C101.462 35.3174 101.476 33.8342 101.503 32.4757L101.586 23.2854L94.1844 44.4938H90.9823L83.0396 23.2439L83.2475 31.5608V41.7076L86.6575 42.2482V44.4938H76.5107ZM114.29 44.4938V42.5393L116.536 42.0403C116.563 41.0422 116.577 39.961 116.577 38.7966C116.577 37.6323 116.577 36.6204 116.577 35.7609V33.7648C116.577 32.6282 116.563 31.6856 116.536 30.9371C116.536 30.1608 116.508 29.3568 116.452 28.5251L113.874 28.1509V26.5291L122.607 23.7429L123.314 24.2003L123.189 30.2301V35.7609C123.189 36.6204 123.189 37.6461 123.189 38.8382C123.189 40.0026 123.203 41.0977 123.231 42.1234L125.31 42.5393V44.4938H114.29ZM119.821 20.6656C118.851 20.6656 118.019 20.3606 117.326 19.7507C116.633 19.1131 116.286 18.323 116.286 17.3804C116.286 16.4101 116.633 15.6199 117.326 15.01C118.019 14.3724 118.851 14.0536 119.821 14.0536C120.791 14.0536 121.623 14.3724 122.316 15.01C123.009 15.6199 123.356 16.4101 123.356 17.3804C123.356 18.323 123.009 19.1131 122.316 19.7507C121.623 20.3606 120.791 20.6656 119.821 20.6656ZM135.266 45.1175C133.408 45.1175 131.953 44.674 130.899 43.7868C129.846 42.872 129.319 41.3888 129.319 39.3372C129.319 38.6164 129.319 37.9511 129.319 37.3412C129.347 36.7035 129.361 35.9827 129.361 35.1787V27.236H126.658V24.7825L129.735 24.3666L131.814 18.5447H136.056L135.973 24.4082H140.339V27.236H135.973V38.8798C135.973 39.8501 136.167 40.5709 136.555 41.0422C136.971 41.4858 137.484 41.7076 138.094 41.7076C138.814 41.7076 139.563 41.4026 140.339 40.7927L141.379 41.7908C140.824 42.8442 140.048 43.6621 139.05 44.2443C138.08 44.8265 136.818 45.1175 135.266 45.1175ZM160.436 45.2839C158.883 45.2839 157.289 45.1037 155.653 44.7433C154.018 44.3829 152.604 43.8284 151.412 43.0799L151.661 36.9253H155.529L156.36 42.0403C156.998 42.2898 157.636 42.4838 158.273 42.6225C158.911 42.7333 159.618 42.7888 160.394 42.7888C161.891 42.7888 163.028 42.4145 163.804 41.666C164.58 40.8897 164.968 39.9472 164.968 38.8382C164.968 37.7293 164.677 36.8699 164.095 36.2599C163.541 35.65 162.64 35.0678 161.392 34.5134L159.604 33.7233C157.164 32.5866 155.265 31.3252 153.907 29.939C152.576 28.5529 151.911 26.7093 151.911 24.4082C151.911 21.9131 152.84 19.9586 154.697 18.5447C156.582 17.1031 159.091 16.3823 162.224 16.3823C163.721 16.3823 165.149 16.5764 166.507 16.9645C167.893 17.3249 169.085 17.8378 170.083 18.5032L169.751 24.3251H165.925L165.135 19.418C164.691 19.2517 164.248 19.1269 163.804 19.0438C163.361 18.9329 162.875 18.8774 162.349 18.8774C161.157 18.8774 160.145 19.224 159.313 19.9171C158.481 20.6101 158.065 21.525 158.065 22.6617C158.065 23.7706 158.384 24.6577 159.022 25.3231C159.687 25.9607 160.63 26.5568 161.85 27.1113L163.804 27.9845C166.438 29.1766 168.337 30.4381 169.501 31.7688C170.693 33.0718 171.289 34.7768 171.289 36.8837C171.289 39.3234 170.361 41.3333 168.503 42.9135C166.673 44.4938 163.984 45.2839 160.436 45.2839ZM181.155 45.1175C179.298 45.1175 177.842 44.674 176.789 43.7868C175.736 42.872 175.209 41.3888 175.209 39.3372C175.209 38.6164 175.209 37.9511 175.209 37.3412C175.237 36.7035 175.25 35.9827 175.25 35.1787V27.236H172.547V24.7825L175.625 24.3666L177.704 18.5447H181.946L181.862 24.4082H186.229V27.236H181.862V38.8798C181.862 39.8501 182.056 40.5709 182.445 41.0422C182.86 41.4858 183.373 41.7076 183.983 41.7076C184.704 41.7076 185.453 41.4026 186.229 40.7927L187.268 41.7908C186.714 42.8442 185.938 43.6621 184.94 44.2443C183.969 44.8265 182.708 45.1175 181.155 45.1175ZM198.6 45.1175C196.438 45.1175 194.566 44.674 192.986 43.7868C191.406 42.872 190.186 41.6105 189.327 40.0026C188.467 38.3669 188.037 36.4817 188.037 34.347C188.037 32.2123 188.495 30.3549 189.41 28.7747C190.352 27.1944 191.628 25.9607 193.236 25.0736C194.843 24.1864 196.632 23.7429 198.6 23.7429C200.568 23.7429 202.343 24.1726 203.923 25.032C205.531 25.8914 206.806 27.1251 207.749 28.7331C208.691 30.3133 209.163 32.1846 209.163 34.347C209.163 36.5095 208.733 38.3946 207.873 40.0026C207.014 41.6105 205.794 42.872 204.214 43.7868C202.634 44.674 200.762 45.1175 198.6 45.1175ZM198.6 42.9551C199.764 42.9551 200.638 42.2759 201.22 40.9175C201.802 39.559 202.093 37.4105 202.093 34.4718C202.093 31.5054 201.802 29.343 201.22 27.9845C200.638 26.6261 199.764 25.9469 198.6 25.9469C197.408 25.9469 196.521 26.6261 195.939 27.9845C195.356 29.343 195.065 31.5054 195.065 34.4718C195.065 37.4105 195.356 39.559 195.939 40.9175C196.521 42.2759 197.408 42.9551 198.6 42.9551ZM211.468 44.4938V42.5393L213.755 42.0818C213.783 41.0561 213.796 39.961 213.796 38.7966C213.796 37.6323 213.796 36.6204 213.796 35.7609V33.3074C213.796 32.5312 213.783 31.8935 213.755 31.3945C213.755 30.8955 213.741 30.4381 213.713 30.0222C213.713 29.5786 213.699 29.0796 213.672 28.5251L211.135 28.1509V26.5291L219.327 23.7429L220.076 24.2003L220.45 29.1073C221.032 27.333 221.85 26.0023 222.903 25.1152C223.957 24.2003 224.997 23.7429 226.022 23.7429C226.937 23.7429 227.727 24.0062 228.393 24.533C229.058 25.032 229.474 25.7944 229.64 26.8202C229.613 27.9014 229.321 28.7469 228.767 29.3568C228.213 29.939 227.519 30.2301 226.688 30.2301C225.523 30.2301 224.456 29.5786 223.486 28.2756L223.236 27.943C222.626 28.5251 222.058 29.2598 221.531 30.147C221.032 31.0341 220.672 31.9628 220.45 32.9331V35.7609C220.45 36.6204 220.45 37.6045 220.45 38.7135C220.45 39.8224 220.464 40.862 220.492 41.8323L223.777 42.5393V44.4938H211.468ZM240.462 25.9053C239.686 25.9053 238.965 26.3904 238.3 27.3608C237.662 28.3034 237.302 30.0499 237.219 32.6005H240.754C241.752 32.6005 242.417 32.4064 242.75 32.0183C243.11 31.6024 243.29 30.9232 243.29 29.9806C243.29 28.5945 243.013 27.5687 242.459 26.9033C241.904 26.238 241.239 25.9053 240.462 25.9053ZM240.546 45.1175C238.522 45.1175 236.734 44.7017 235.181 43.87C233.629 43.0106 232.409 41.7908 231.522 40.2105C230.635 38.6026 230.191 36.6897 230.191 34.4718C230.191 32.143 230.704 30.1885 231.73 28.6083C232.783 27.0004 234.128 25.7944 235.763 24.9904C237.399 24.1587 239.104 23.7429 240.878 23.7429C242.708 23.7429 244.261 24.131 245.536 24.9072C246.839 25.6835 247.823 26.737 248.488 28.0677C249.154 29.3707 249.486 30.8678 249.486 32.5589C249.486 33.3629 249.403 34.0975 249.237 34.7629H237.219C237.357 36.953 237.953 38.5748 239.007 39.6283C240.088 40.6541 241.35 41.167 242.791 41.167C243.928 41.167 244.898 40.9591 245.702 40.5432C246.506 40.0996 247.213 39.559 247.823 38.9214L249.278 40.2521C248.419 41.8878 247.255 43.1076 245.785 43.9116C244.316 44.7156 242.569 45.1175 240.546 45.1175Z" fill="white"/>
</svg>
