<svg width="147" height="34" viewBox="0 0 147 34" fill="none" xmlns="http://www.w3.org/2000/svg">
<path d="M0.556751 14.1384C1.55859 10.1012 3.87883 6.51608 7.148 3.95401C10.4172 1.39187 14.4474 0 18.5968 0C22.7463 0 26.7765 1.39187 30.0457 3.95401C33.3149 6.51608 35.6351 10.1012 36.6369 14.1384H35.0074C32.2586 14.0978 29.5661 14.9215 27.308 16.4937C27.1776 16.5883 27.0415 16.6748 26.9006 16.7524H26.7105C26.5695 16.6748 26.4335 16.5883 26.3031 16.4937C24.025 14.9578 21.342 14.1375 18.5968 14.1375C15.8517 14.1375 13.1687 14.9578 10.8906 16.4937C10.7602 16.5883 10.6242 16.6748 10.4832 16.7524H10.2931C10.1522 16.6748 10.0161 16.5883 9.88573 16.4937C7.62762 14.9215 4.93512 14.0978 2.18627 14.1384H0.556751ZM32.0743 22.6747C32.9108 22.0216 33.9476 21.6799 35.0074 21.7081H37.1937V17.3378H35.0074C33.1405 17.3152 31.3164 17.8978 29.8066 18.9988C28.9569 19.6268 27.9291 19.9657 26.8734 19.9657C25.8178 19.9657 24.7899 19.6268 23.9403 18.9988C22.3921 17.9183 20.551 17.339 18.6647 17.339C16.7784 17.339 14.9374 17.9183 13.3892 18.9988C12.5395 19.6268 11.5117 19.9657 10.4561 19.9657C9.4004 19.9657 8.37259 19.6268 7.52293 18.9988C5.99444 17.8836 4.14413 17.3003 2.25416 17.3378H0V21.7081H2.18627C3.24614 21.6799 4.28291 22.0216 5.11939 22.6747C6.66472 23.756 8.50376 24.3357 10.3882 24.3357C12.2726 24.3357 14.1116 23.756 15.6569 22.6747C16.4945 22.0237 17.5305 21.6822 18.5901 21.7081C19.6503 21.6776 20.6878 22.0196 21.5232 22.6747C23.0714 23.7553 24.9124 24.3345 26.7987 24.3345C28.685 24.3345 30.5261 23.7553 32.0743 22.6747ZM32.0743 30.4895C32.9108 29.8364 33.9476 29.4947 35.0074 29.5229H37.1937V25.1526H35.0074C33.1405 25.13 31.3164 25.7125 29.8066 26.8136C28.9569 27.4416 27.9291 27.7805 26.8734 27.7805C25.8178 27.7805 24.7899 27.4416 23.9403 26.8136C22.3921 25.7331 20.551 25.1539 18.6647 25.1539C16.7784 25.1539 14.9374 25.7331 13.3892 26.8136C12.5395 27.4416 11.5117 27.7805 10.4561 27.7805C9.4004 27.7805 8.37259 27.4416 7.52293 26.8136C5.99444 25.6985 4.14413 25.1151 2.25416 25.1526H0V29.5229H2.18627C3.24614 29.4947 4.28291 29.8364 5.11939 30.4895C6.66472 31.5708 8.50376 32.1505 10.3882 32.1505C12.2726 32.1505 14.1116 31.5708 15.6569 30.4895C16.4945 29.8384 17.5305 29.497 18.5901 29.5229C19.6503 29.4924 20.6878 29.8344 21.5232 30.4895C23.0714 31.5701 24.9124 32.1493 26.7987 32.1493C28.685 32.1493 30.5261 31.5701 32.0743 30.4895Z" fill="#463B24"/>
<path d="M44.5641 25.7824V24.4745L46.9135 24.1838V11.4191L44.7821 11.1769V9.86896H51.1765L55.1246 20.5264L58.8305 9.86896H64.9585V11.1769L63.2388 11.3707C63.2226 12.3557 63.2065 13.3568 63.1903 14.3741C63.1903 15.3753 63.1903 16.3764 63.1903 17.3776V18.2738C63.1903 19.2749 63.1903 20.2761 63.1903 21.2772C63.2065 22.2784 63.2226 23.2795 63.2388 24.2807L65.0311 24.4745V25.7824H57.3045V24.4745L59.0727 24.2565C59.105 23.2715 59.113 22.3107 59.0969 21.3741C59.0969 20.4376 59.105 19.5737 59.1211 18.7824L59.1696 13.4295L54.8582 25.7824H52.9931L48.3668 13.4053L48.4879 18.2496V24.1596L50.4741 24.4745V25.7824H44.5641ZM66.5688 25.7824V24.644L67.8768 24.3533C67.8929 23.772 67.901 23.1423 67.901 22.4641C67.901 21.7859 67.901 21.1965 67.901 20.6959V19.5333C67.901 18.8712 67.8929 18.3222 67.8768 17.8862C67.8768 17.4341 67.8606 16.9658 67.8283 16.4814L66.3266 16.2634V15.3188L71.4131 13.6959L71.8249 13.9624L71.7522 17.4745V20.6959C71.7522 21.1965 71.7522 21.794 71.7522 22.4883C71.7522 23.1665 71.7603 23.8043 71.7764 24.4018L72.9875 24.644V25.7824H66.5688ZM69.7903 11.9036C69.2251 11.9036 68.7407 11.7259 68.337 11.3707C67.9333 10.9993 67.7314 10.5391 67.7314 9.99007C67.7314 9.4249 67.9333 8.9647 68.337 8.60945C68.7407 8.23805 69.2251 8.05236 69.7903 8.05236C70.3554 8.05236 70.8399 8.23805 71.2435 8.60945C71.6472 8.9647 71.8491 9.4249 71.8491 9.99007C71.8491 10.5391 71.6472 10.9993 71.2435 11.3707C70.8399 11.7259 70.3554 11.9036 69.7903 11.9036ZM78.7862 26.1457C77.7043 26.1457 76.8566 25.8874 76.243 25.3706C75.6294 24.8378 75.3226 23.9739 75.3226 22.779C75.3226 22.3591 75.3226 21.9716 75.3226 21.6163C75.3387 21.2449 75.3468 20.8251 75.3468 20.3568V15.7305H73.7724V14.3015L75.5648 14.0593L76.7759 10.6683H79.2464L79.198 14.0835H81.7412V15.7305H79.198V22.5125C79.198 23.0777 79.311 23.4975 79.5371 23.772C79.7793 24.0304 80.078 24.1596 80.4333 24.1596C80.8531 24.1596 81.2891 23.982 81.7412 23.6267L82.3468 24.208C82.0238 24.8216 81.5717 25.298 80.9904 25.6371C80.4252 25.9762 79.6905 26.1457 78.7862 26.1457ZM93.4466 26.2426C92.5423 26.2426 91.6139 26.1377 90.6611 25.9277C89.7084 25.7178 88.8849 25.3949 88.1906 24.9589L88.3359 21.3741H90.5885L91.0729 24.3533C91.4443 24.4987 91.8157 24.6117 92.1871 24.6924C92.5585 24.757 92.9702 24.7893 93.4224 24.7893C94.2944 24.7893 94.9564 24.5713 95.4085 24.1354C95.8607 23.6832 96.0867 23.1342 96.0867 22.4883C96.0867 21.8424 95.9172 21.3418 95.5781 20.9866C95.2551 20.6313 94.7303 20.2922 94.0037 19.9693L92.9622 19.5091C91.5412 18.847 90.4351 18.1123 89.6438 17.3049C88.8688 16.4975 88.4812 15.4237 88.4812 14.0835C88.4812 12.6302 89.0222 11.4918 90.1041 10.6683C91.2021 9.82859 92.6634 9.40875 94.4881 9.40875C95.3601 9.40875 96.1917 9.52179 96.9829 9.74785C97.7903 9.95777 98.4846 10.2565 99.066 10.644L98.8722 14.035H96.6438L96.1836 11.1769C95.9253 11.08 95.6669 11.0074 95.4085 10.9589C95.1502 10.8943 94.8676 10.862 94.5608 10.862C93.8664 10.862 93.2771 11.0639 92.7926 11.4676C92.3082 11.8713 92.066 12.4041 92.066 13.0662C92.066 13.7121 92.2517 14.2288 92.6231 14.6164C93.0106 14.9877 93.5596 15.3349 94.2701 15.6579L95.4085 16.1665C96.9426 16.8609 98.0487 17.5956 98.7269 18.3707C99.4212 19.1296 99.7684 20.1227 99.7684 21.3499C99.7684 22.7709 99.2274 23.9416 98.1456 24.862C97.0798 25.7824 95.5135 26.2426 93.4466 26.2426ZM105.515 26.1457C104.433 26.1457 103.585 25.8874 102.972 25.3706C102.358 24.8378 102.051 23.9739 102.051 22.779C102.051 22.3591 102.051 21.9716 102.051 21.6163C102.067 21.2449 102.075 20.8251 102.075 20.3568V15.7305H100.501V14.3015L102.293 14.0593L103.505 10.6683H105.975L105.927 14.0835H108.47V15.7305H105.927V22.5125C105.927 23.0777 106.04 23.4975 106.266 23.772C106.508 24.0304 106.807 24.1596 107.162 24.1596C107.582 24.1596 108.018 23.982 108.47 23.6267L109.075 24.208C108.752 24.8216 108.3 25.298 107.719 25.6371C107.154 25.9762 106.419 26.1457 105.515 26.1457ZM115.676 26.1457C114.416 26.1457 113.326 25.8874 112.406 25.3706C111.485 24.8378 110.775 24.1031 110.274 23.1665C109.774 22.2138 109.523 21.1158 109.523 19.8724C109.523 18.629 109.79 17.5471 110.323 16.6267C110.872 15.7063 111.614 14.9877 112.551 14.471C113.488 13.9543 114.529 13.6959 115.676 13.6959C116.822 13.6959 117.856 13.9462 118.776 14.4468C119.712 14.9474 120.455 15.6659 121.004 16.6025C121.553 17.5229 121.828 18.6129 121.828 19.8724C121.828 21.1319 121.578 22.2299 121.077 23.1665C120.576 24.1031 119.866 24.8378 118.945 25.3706C118.025 25.8874 116.935 26.1457 115.676 26.1457ZM115.676 24.8862C116.354 24.8862 116.862 24.4906 117.202 23.6994C117.541 22.9081 117.71 21.6567 117.71 19.9451C117.71 18.2173 117.541 16.9578 117.202 16.1665C116.862 15.3753 116.354 14.9797 115.676 14.9797C114.981 14.9797 114.465 15.3753 114.125 16.1665C113.786 16.9578 113.617 18.2173 113.617 19.9451C113.617 21.6567 113.786 22.9081 114.125 23.6994C114.465 24.4906 114.981 24.8862 115.676 24.8862ZM123.17 25.7824V24.644L124.503 24.3776C124.519 23.7801 124.527 23.1423 124.527 22.4641C124.527 21.7859 124.527 21.1965 124.527 20.6959V19.2669C124.527 18.8147 124.519 18.4433 124.503 18.1527C124.503 17.862 124.494 17.5956 124.478 17.3534C124.478 17.095 124.47 16.8044 124.454 16.4814L122.977 16.2634V15.3188L127.748 13.6959L128.184 13.9624L128.402 16.8205C128.741 15.7871 129.218 15.012 129.831 14.4952C130.445 13.9624 131.05 13.6959 131.648 13.6959C132.181 13.6959 132.641 13.8493 133.028 14.1561C133.416 14.4468 133.658 14.8909 133.755 15.4883C133.739 16.1181 133.569 16.6106 133.246 16.9658C132.924 17.3049 132.52 17.4745 132.035 17.4745C131.357 17.4745 130.736 17.095 130.17 16.3361L130.025 16.1423C129.67 16.4814 129.339 16.9093 129.032 17.426C128.741 17.9428 128.531 18.4837 128.402 19.0489V20.6959C128.402 21.1965 128.402 21.7697 128.402 22.4156C128.402 23.0615 128.41 23.6671 128.426 24.2322L130.34 24.644V25.7824H123.17ZM140.059 14.9555C139.606 14.9555 139.187 15.238 138.799 15.8032C138.428 16.3522 138.218 17.3695 138.169 18.8551H140.228C140.809 18.8551 141.197 18.7421 141.391 18.516C141.601 18.2738 141.706 17.8782 141.706 17.3291C141.706 16.5218 141.544 15.9243 141.221 15.5368C140.898 15.1492 140.511 14.9555 140.059 14.9555ZM140.107 26.1457C138.928 26.1457 137.887 25.9035 136.982 25.4191C136.078 24.9185 135.368 24.208 134.851 23.2876C134.334 22.351 134.076 21.2369 134.076 19.9451C134.076 18.5887 134.375 17.4503 134.972 16.5298C135.586 15.5933 136.369 14.8909 137.322 14.4226C138.274 13.9382 139.267 13.6959 140.301 13.6959C141.367 13.6959 142.271 13.922 143.014 14.3741C143.773 14.8263 144.346 15.4399 144.733 16.215C145.121 16.9739 145.315 17.8459 145.315 18.8309C145.315 19.2992 145.266 19.7271 145.169 20.1146H138.169C138.25 21.3903 138.597 22.3349 139.211 22.9485C139.841 23.546 140.575 23.8447 141.415 23.8447C142.077 23.8447 142.642 23.7236 143.11 23.4814C143.579 23.223 143.991 22.9081 144.346 22.5367L145.194 23.3118C144.693 24.2645 144.015 24.975 143.159 25.4433C142.303 25.9116 141.286 26.1457 140.107 26.1457Z" fill="#463B24"/>
</svg>
