<svg width="96" height="50" viewBox="0 0 96 50" fill="none" xmlns="http://www.w3.org/2000/svg">
<path d="M22.7829 0.16528C22.6964 0.251761 22.5775 0.478774 22.5018 0.684167C22.4261 0.878749 22.2964 1.22467 22.2099 1.44088C21.8206 2.48946 21.7233 2.7489 21.5611 3.1705C21.4638 3.42994 21.3232 3.80829 21.2475 4.01369C21.1718 4.21908 21.0205 4.60824 20.9232 4.8785C20.8258 5.14875 20.6745 5.54873 20.588 5.76493C20.5015 5.99194 20.3717 6.35949 20.2852 6.57569C20.1987 6.8027 20.0581 7.19187 19.9608 7.4405C19.7446 8.03506 19.5067 8.66204 19.3121 9.17012C19.2256 9.39713 19.0742 9.79711 18.9769 10.0674C18.8796 10.3376 18.7282 10.7376 18.6417 10.9538C18.5552 11.1808 18.4254 11.5483 18.3389 11.7646C18.2524 11.9916 18.1119 12.3807 18.0146 12.6294C17.9172 12.8888 17.7767 13.278 17.6902 13.4942C17.6037 13.7212 17.4523 14.1212 17.355 14.3914C17.2577 14.6617 17.1063 15.0508 17.0306 15.2562C16.9549 15.4616 16.8035 15.8508 16.7062 16.121C16.6089 16.3913 16.4575 16.7913 16.371 17.0075C16.1764 17.5264 15.9385 18.1533 15.7223 18.7371C15.625 18.9965 15.4844 19.3749 15.4087 19.5803C15.333 19.7857 15.2033 20.1532 15.1059 20.391C15.0194 20.6289 14.8573 21.0396 14.7599 21.3099C14.5221 21.9261 14.2842 22.5531 14.1112 23.0395C14.0355 23.2449 13.8949 23.6233 13.7976 23.8719C13.7003 24.1313 13.5489 24.5421 13.4516 24.7908C13.3543 25.0502 13.2354 25.3421 13.1813 25.4394C13.1272 25.5475 13.084 25.7312 13.084 25.8502C13.084 26.0664 13.1489 26.0664 16.0899 26.0664H19.1066L19.2364 25.7637C19.3121 25.6015 19.5716 24.9637 19.8094 24.3367C20.0473 23.7097 20.3393 22.953 20.4582 22.6612C20.5771 22.3585 20.7177 21.9693 20.761 21.7964C20.8691 21.418 20.9988 21.0721 21.7341 19.2019C22.0369 18.4236 22.3288 17.6453 22.3829 17.4723C22.5342 16.9642 22.8262 16.1859 22.9127 16.067C22.9667 16.0129 23.0316 15.8184 23.0749 15.6454C23.1289 15.4184 23.183 15.3643 23.2695 15.4508C23.3884 15.5697 23.3344 16.3913 22.8586 22.7693C22.7613 24.0124 22.7072 25.2556 22.7289 25.5258L22.7613 26.0123L25.8429 26.0447C27.5405 26.0555 29.0326 26.0447 29.1624 26.0123C29.2921 25.9799 29.4327 25.8502 29.4651 25.7096C29.5516 25.4177 30.1355 23.8611 30.3302 23.4179C30.4058 23.2341 30.4923 22.9963 30.5248 22.8774C30.5572 22.7585 30.6762 22.4125 30.7951 22.1207C30.9032 21.818 31.26 20.8991 31.5628 20.0667C31.8764 19.2344 32.2007 18.4128 32.2872 18.2506C32.3737 18.0777 32.4386 17.8723 32.4386 17.7966C32.4386 17.7101 32.5143 17.4615 32.6116 17.2345C32.8819 16.6291 33.2928 15.5913 33.5739 14.8238C33.6496 14.6184 33.801 14.2293 33.8983 13.959C33.9956 13.6888 34.147 13.2996 34.2227 13.0942C34.2984 12.8888 34.439 12.5105 34.5363 12.251C34.6336 12.0024 34.785 11.6024 34.8715 11.3646C34.958 11.1268 35.1093 10.7376 35.1958 10.4998C35.2823 10.2619 35.4337 9.87278 35.5202 9.63496C35.6067 9.39713 35.7581 9.00797 35.8446 8.77014C35.9311 8.53232 36.0825 8.14316 36.169 7.90533C36.2555 7.66751 36.4069 7.27835 36.4934 7.04052C36.5799 6.8027 36.7312 6.40273 36.8286 6.14328C36.9259 5.89465 37.0664 5.5163 37.1421 5.3109C37.2935 4.90012 37.5098 4.31637 37.7801 3.6029C37.8774 3.35427 38.0288 2.95429 38.1153 2.71647C38.4505 1.80842 38.6343 1.35439 38.7856 0.97604C38.8721 0.759838 38.9262 0.467964 38.9046 0.327432L38.8721 0.0679893L36.223 0.0355588C34.7633 0.0139386 33.4226 0.0355589 33.2388 0.0679893C32.8819 0.13285 32.8927 0.0896097 31.9521 2.60837C31.8655 2.84619 31.7142 3.23536 31.6277 3.47318C31.5412 3.711 31.4006 4.08936 31.3141 4.30556C31.2276 4.53257 31.087 4.92174 30.9897 5.17037C30.8924 5.42981 30.741 5.8406 30.6437 6.08923C30.3085 6.97566 30.1788 7.31078 29.8436 8.22964C29.2273 9.87278 29.1732 10.0133 29.0326 10.3376C28.9569 10.5106 28.8596 10.7592 28.8272 10.8673C28.7839 10.997 28.7191 11.0403 28.6542 10.9754C28.5893 10.9106 28.6109 10.3052 28.7083 9.31065C28.7948 8.44584 28.8704 7.35402 28.8704 6.87837C28.8704 6.40273 28.9461 5.25685 29.0218 4.33799C29.2056 2.32731 29.2705 0.338243 29.1624 0.14366C29.0326 -0.0617323 22.9992 -0.040112 22.7829 0.16528ZM39.8561 0.219331C39.7588 0.327432 39.629 0.554445 39.575 0.727407C39.5317 0.900369 39.3803 1.31115 39.2506 1.63546C39.1208 1.95976 38.9803 2.34893 38.9262 2.50027C38.8721 2.65161 38.7316 3.04078 38.6018 3.36508C38.4721 3.68938 38.3315 4.07855 38.2774 4.22989C38.2234 4.38123 38.0828 4.7704 37.9531 5.0947C37.8233 5.419 37.6828 5.80817 37.6287 5.95951C37.5746 6.11085 37.4341 6.50002 37.3043 6.82432C37.1746 7.14863 37.034 7.53779 36.9799 7.68913C36.9259 7.84047 36.7853 8.22964 36.6556 8.55394C36.5258 8.87825 36.3852 9.26741 36.3312 9.41875C36.2771 9.57009 36.1365 9.95926 36.0068 10.2836C35.877 10.6079 35.7365 10.997 35.6824 11.1484C35.6283 11.2997 35.4878 11.6889 35.358 12.0132C35.2283 12.3375 35.0877 12.7267 35.0337 12.878C34.9796 13.0293 34.839 13.4185 34.7093 13.7428C34.5795 14.0671 34.439 14.4563 34.3849 14.6076C34.3308 14.759 34.1903 15.1481 34.0605 15.4724C33.7361 16.3156 33.5199 16.8886 33.4118 17.202C33.3577 17.3534 33.2171 17.7426 33.0874 18.0669C32.9576 18.3912 32.8171 18.7803 32.763 18.9317C32.7089 19.083 32.5684 19.4722 32.4386 19.7965C32.3089 20.1208 32.1683 20.5099 32.1142 20.6613C32.0602 20.8126 31.9196 21.2018 31.7899 21.5261C31.6601 21.8504 31.5195 22.2396 31.4655 22.3909C31.4114 22.5423 31.2709 22.9314 31.1411 23.2557C31.0114 23.58 30.8708 23.9692 30.8167 24.1205C30.7627 24.2719 30.6221 24.661 30.4923 24.9853C30.049 26.1096 29.7895 26.0123 33.2171 26.0447L36.2122 26.0664L36.396 25.7204C36.4934 25.5367 36.6123 25.2556 36.6556 25.1043C36.7096 24.9529 36.8502 24.5529 36.9799 24.2286C37.1097 23.9043 37.2502 23.5152 37.3043 23.3638C37.3584 23.2125 37.4989 22.8233 37.6287 22.499C37.7584 22.1747 37.899 21.7855 37.9531 21.6342C38.0071 21.4829 38.1477 21.0937 38.2774 20.7694C38.4072 20.4451 38.5478 20.0559 38.6018 19.9046C38.6559 19.7532 38.7965 19.3641 38.9262 19.0398C39.056 18.7155 39.1965 18.3263 39.2506 18.175C39.3046 18.0236 39.4452 17.6345 39.575 17.3101C39.7047 16.9858 39.8453 16.5967 39.8993 16.4453C39.9534 16.294 40.094 15.9048 40.2237 15.5805C40.3535 15.2562 40.494 14.8671 40.5481 14.7157C40.6022 14.5644 40.7427 14.1752 40.8725 13.8509C41.0022 13.5266 41.1428 13.1374 41.1969 12.9861C41.2509 12.8348 41.3915 12.4456 41.5212 12.1213C41.651 11.797 41.7916 11.4078 41.8456 11.2565C41.8997 11.1051 42.0402 10.716 42.17 10.3917C42.2998 10.0674 42.4403 9.6782 42.4944 9.52685C42.5484 9.37551 42.689 8.98635 42.8188 8.66204C42.9485 8.33774 43.0891 7.94858 43.1431 7.79723C43.1972 7.64589 43.3378 7.25673 43.4675 6.93242C43.5973 6.60812 43.7378 6.21895 43.7919 6.06761C43.846 5.91627 43.9865 5.52711 44.1163 5.2028C44.246 4.8785 44.3866 4.48933 44.4407 4.33799C44.4947 4.18665 44.6353 3.79748 44.765 3.47318C44.8948 3.14888 45.0354 2.75971 45.0894 2.60837C45.1435 2.45703 45.284 2.06786 45.4138 1.74356C45.9436 0.381483 45.9869 0.208521 45.8247 0.11123C45.749 0.0571791 44.419 0.0139386 42.862 0.0139386C40.2453 0.0139386 40.0291 0.0247487 39.8561 0.219331Z" fill="#463B24"/>
<path d="M46.9817 0.295002C46.8844 0.457154 46.7546 0.705787 46.7114 0.867939C46.6573 1.01928 46.5168 1.41926 46.387 1.74356C46.2573 2.06786 46.1167 2.45703 46.0626 2.60837C46.0086 2.75971 45.868 3.14888 45.7382 3.47318C45.6085 3.79748 45.4571 4.20827 45.4031 4.39204C45.349 4.565 45.2625 4.81364 45.2084 4.93255C45.1544 5.05146 44.884 5.77574 44.6029 6.55407C44.3218 7.32159 44.0515 8.05668 43.9974 8.17559C43.9433 8.2945 43.8568 8.53232 43.8028 8.71609C43.7487 8.88906 43.5973 9.31065 43.4676 9.63496C43.3378 9.95926 43.1973 10.3484 43.1432 10.4998C43.0891 10.6511 42.9486 11.0403 42.8188 11.3646C42.6891 11.6889 42.5485 12.078 42.4945 12.2294C42.4404 12.3807 42.2998 12.7699 42.1701 13.0942C42.0403 13.4185 41.8998 13.8077 41.8457 13.959C41.7916 14.1103 41.6511 14.4995 41.5213 14.8238C41.3916 15.1481 41.251 15.5373 41.1969 15.6886C41.1429 15.84 41.0023 16.2291 40.8726 16.5534C40.5482 17.3966 40.3319 17.9696 40.2238 18.2831C40.1697 18.4344 40.0292 18.8236 39.8994 19.1479C39.7697 19.4722 39.6291 19.8613 39.575 20.0127C39.521 20.164 39.3804 20.5532 39.2507 20.8775C39.1317 21.2018 38.9263 21.7639 38.8073 22.1207C38.6884 22.4774 38.5478 22.8666 38.4938 22.9855C38.4397 23.1044 38.2667 23.5368 38.1153 23.9584C37.964 24.3692 37.8018 24.8124 37.7477 24.9313C37.2071 26.1745 36.9584 26.0664 40.4292 26.0664C43.4352 26.0664 43.4568 26.0664 43.619 25.8285C43.7163 25.6988 43.792 25.5042 43.792 25.4069C43.792 25.2988 43.8568 25.0826 43.9433 24.9097C44.0298 24.7475 44.1812 24.4016 44.2677 24.1422C44.365 23.8935 44.5164 23.4935 44.6029 23.2557C44.6894 23.0179 44.83 22.6395 44.9165 22.4125C45.003 22.1963 45.1436 21.8072 45.2409 21.5477C45.3382 21.2991 45.4787 20.9099 45.5652 20.6829C45.6517 20.4667 45.9437 19.6992 46.2248 18.9857C46.4951 18.2722 46.7871 17.5155 46.8736 17.3101C47.4142 15.9156 47.5115 15.6994 47.5872 15.8183C47.6196 15.894 47.6953 17.7317 47.7386 19.9046C47.7818 22.0774 47.8467 24.3367 47.89 24.9313L47.9548 26.0123L51.9555 26.0664L55.9562 26.1204L55.4264 26.3582C55.1344 26.4988 54.8209 26.6069 54.7236 26.6069C54.6154 26.6069 54.3235 26.6717 54.0532 26.7582C53.7937 26.8339 53.2638 26.996 52.8746 27.0933C52.0636 27.3095 51.1878 27.5473 50.4958 27.7419C50.2255 27.8176 49.6957 27.9581 49.3064 28.0554C48.9172 28.1635 48.3333 28.3149 48.0089 28.4013C46.9384 28.6932 46.2356 28.8878 45.6517 29.0391C45.003 29.2229 44.1596 29.4499 43.327 29.6769C43.0243 29.7634 42.4512 29.9148 42.0619 30.0121C41.6727 30.1202 41.1429 30.2607 40.8726 30.3364C40.6022 30.412 40.0724 30.5526 39.6832 30.6607C39.2939 30.7688 38.7641 30.9093 38.4938 30.985C38.2235 31.0606 37.6936 31.2012 37.3044 31.3093C36.9151 31.4066 36.3312 31.5579 36.0069 31.6552C35.6825 31.7417 35.1527 31.8822 34.8391 31.9687C34.0065 32.1957 33.1631 32.4227 32.5144 32.5957C32.2116 32.6822 31.6386 32.8335 31.2493 32.9308C30.86 33.0389 30.3302 33.1794 30.0599 33.2551C29.7896 33.3308 29.2598 33.4713 28.8705 33.5794C28.0163 33.8064 27.1405 34.0442 26.4917 34.228C26.2214 34.3037 25.6916 34.4442 25.3023 34.5523C24.9131 34.6496 24.3616 34.8009 24.0589 34.8766C22.2856 35.3523 21.9072 35.4063 19.896 35.3955C17.8416 35.3955 17.5713 35.3631 15.8413 34.8226C15.4845 34.7145 14.8898 34.455 14.5113 34.2604C14.1329 34.0658 13.7004 33.8388 13.5382 33.7524C13.376 33.6659 12.7813 33.1362 12.219 32.5632C11.4297 31.7633 11.1053 31.3417 10.7918 30.7147C10.0673 29.2121 9.82945 28.2608 9.76458 26.5528C9.71052 25.1691 9.92677 23.5692 10.3809 22.0126C10.5107 21.591 10.6512 21.1045 10.7053 20.9315C10.8567 20.4127 11.0945 19.8073 11.5595 18.7263C12.2515 17.1372 12.1434 17.202 10.4241 19.3316C8.29406 21.9801 6.84516 23.98 5.06108 26.769C4.80157 27.1798 4.54207 27.6014 4.50963 27.6879C4.46638 27.7744 4.33663 27.9906 4.21769 28.1743C4.00144 28.5203 3.89331 28.704 3.36349 29.6877C2.14166 31.9254 1.28746 33.8821 0.811708 35.5252C0.390015 36.963 0.335952 37.1792 0.173762 38.0115C-0.0749289 39.2871 -0.0533036 41.687 0.217013 42.6599C0.660331 44.2706 1.10365 45.0922 2.09841 46.1516C3.13643 47.2434 5.26652 48.7244 6.22884 49.0163C6.34778 49.0487 6.7046 49.1784 7.02898 49.2973C8.53194 49.8703 9.41857 50 11.8947 50C14.241 50 14.7816 49.9351 16.7063 49.4595C17.7876 49.1892 19.4095 48.7136 19.896 48.5298C20.0366 48.4758 20.4475 48.3352 20.8151 48.2163C21.1719 48.0974 21.8315 47.8488 22.2748 47.665C22.7181 47.492 23.2804 47.265 23.5183 47.1785C23.7561 47.0812 24.1021 46.9515 24.2751 46.865C24.459 46.7894 25.497 46.357 26.5999 45.9029C29.0111 44.8976 29.13 44.8436 29.6815 44.6057C29.9193 44.5084 30.2762 44.3571 30.4708 44.2706C30.6546 44.1841 30.9898 44.0436 31.1952 43.9571C31.671 43.7409 32.2224 43.5031 32.709 43.3085C32.9144 43.222 33.2605 43.0707 33.4659 42.9842C34.039 42.7464 34.558 42.5302 35.0121 42.3248C35.2284 42.2275 35.5635 42.087 35.7365 42.0113C36.5259 41.687 37.3152 41.3519 38.0072 41.0492C38.2451 40.9411 38.5911 40.7898 38.7641 40.7141C38.9479 40.6384 39.2723 40.4979 39.4885 40.4006C39.9427 40.1952 40.4617 39.979 41.0347 39.7412C41.9214 39.3628 42.3431 39.179 43.6082 38.6169C44.0082 38.4331 44.3759 38.2818 44.4299 38.2818C44.484 38.2818 44.6894 38.1953 44.8949 38.098C45.4139 37.8386 45.1868 37.9359 50.4417 35.6874C53.1125 34.5415 55.3723 33.5686 55.4696 33.5253C55.794 33.374 56.3995 33.1146 56.9834 32.8767C57.3078 32.747 57.8484 32.52 58.1728 32.3687C59.1459 31.9254 59.4487 31.7957 59.8487 31.6336C60.6381 31.2985 61.6545 30.8552 61.9572 30.7147C62.0545 30.6715 63.9684 29.8391 66.2282 28.877C68.4881 27.9149 70.4019 27.0825 70.4992 27.0393C70.683 26.942 71.2993 26.6825 71.8292 26.4663C72.2292 26.2934 72.9645 25.9691 73.2024 25.8502C73.2997 25.8069 75.3865 24.9097 77.8518 23.8503C80.3171 22.7909 82.4039 21.8936 82.5012 21.8504C82.6526 21.7747 82.9121 21.6558 83.7988 21.2883C84.2637 21.0937 84.9881 20.7694 85.2152 20.6613C85.3017 20.618 86.5452 20.0775 87.9724 19.4722C89.3889 18.8668 90.5999 18.3263 90.6648 18.2722C90.7188 18.2182 90.827 18.175 90.9027 18.175C90.9784 18.175 91.3568 18.0236 91.7244 17.8507C92.1029 17.6669 92.4489 17.5264 92.4921 17.5264C92.5246 17.5264 92.8922 17.375 93.2923 17.1912C93.6923 16.9967 94.1681 16.7805 94.3411 16.7048C95.7251 16.0994 95.9954 15.9265 95.8549 15.6886C95.7575 15.5373 95.4548 15.5481 94.7952 15.7427C94.0924 15.9589 93.3571 16.1535 92.4489 16.3913C92.0596 16.4994 91.5298 16.6399 91.2595 16.7156C90.9892 16.7913 90.4593 16.9318 90.0701 17.0399C89.6808 17.148 89.151 17.2885 88.8807 17.3642C88.6104 17.4399 88.0806 17.5804 87.6913 17.6885C87.3021 17.7858 86.729 17.9371 86.4262 18.0236C86.1127 18.1101 85.5937 18.2398 85.2909 18.3263C84.9773 18.4128 84.4043 18.5641 84.015 18.6614C83.6258 18.7695 83.0743 18.9209 82.7716 18.9965C81.1605 19.4506 80.1008 19.7424 79.2574 19.9586C78.8682 20.0667 78.3384 20.2073 78.0681 20.2829C77.7977 20.3586 77.2679 20.4991 76.8787 20.6072C76.4894 20.7153 75.9596 20.8559 75.6893 20.9315C75.419 21.0072 74.8891 21.1477 74.4999 21.2558C74.1106 21.3531 73.5376 21.5045 73.2348 21.591C72.9212 21.6774 72.4022 21.8072 72.0995 21.8936C71.7859 21.9801 71.2128 22.1315 70.8236 22.2396C69.3963 22.6071 68.9206 22.7368 68.6827 22.8341C68.5421 22.8882 68.3367 22.9314 68.2177 22.9314C68.0231 22.9314 68.0015 22.8882 68.0664 22.5747C68.1096 22.3909 68.2069 22.1098 68.2826 21.9585C68.3583 21.8072 68.4448 21.5693 68.4556 21.418L68.4989 21.1477L65.1578 21.1153C63.0493 21.1045 61.7626 21.0505 61.6761 20.9748C61.5896 20.8991 61.568 20.7802 61.6328 20.5748C61.9464 19.5911 63.0601 16.6291 63.4169 15.8183C63.5034 15.6238 63.5791 15.3751 63.5791 15.2562C63.5791 15.1481 63.6872 14.9752 63.817 14.8887C64.0224 14.7373 64.4982 14.7157 66.8337 14.7157C69.9261 14.7157 69.7531 14.759 70.0126 13.9374C70.0991 13.6779 70.2613 13.2023 70.3911 12.878C71.2777 10.5646 71.3967 10.2079 71.3318 10.0241C71.2669 9.87278 70.9533 9.85116 68.5529 9.85116C66.3796 9.85116 65.8281 9.81873 65.7849 9.69982C65.7308 9.55928 66.7148 6.74865 67.3203 5.33252C67.4068 5.13794 67.4717 4.91093 67.4717 4.81364C67.4717 4.51095 68.0339 4.44609 70.9425 4.44609H73.8511L74.0241 4.03531C74.1214 3.81911 74.2404 3.51642 74.2836 3.36508C74.3377 3.21374 74.4783 2.82457 74.608 2.50027C74.7378 2.17597 74.8783 1.7868 74.9324 1.63546C74.9865 1.48412 75.127 1.10576 75.246 0.781458C75.3649 0.457154 75.4406 0.165281 75.4081 0.13285C75.3757 0.10042 71.202 0.0571794 66.1201 0.0355591C57.4375 0.0139389 56.8861 0.024749 56.6806 0.197711C56.4644 0.392293 52.9611 4.57581 52.2258 5.52711C52.0204 5.79736 51.7393 6.13247 51.6095 6.28381C51.4798 6.43516 51.2203 6.71622 51.0473 6.9108C50.6796 7.3324 50.4958 7.20268 50.7445 6.68379C50.831 6.48921 50.9824 6.13247 51.0797 5.87303C51.7068 4.19746 51.7609 4.04612 52.388 2.44622C52.6583 1.73275 52.9611 0.986851 53.0476 0.792268C53.2422 0.338243 53.2422 0.165281 53.026 0.0787997C52.9287 0.0463693 51.5771 0.0139389 50.0092 0.0139389H47.1655L46.9817 0.295002ZM62.5735 1.44088C62.5411 1.58141 62.4113 1.95976 62.2816 2.28407C62.1518 2.60837 62.0113 2.99753 61.9572 3.14888C61.9031 3.30022 61.7626 3.68938 61.6328 4.01369C61.5031 4.33799 61.3625 4.72716 61.3085 4.8785C61.2544 5.02984 61.1138 5.419 60.9841 5.74331C60.8543 6.06761 60.7138 6.45678 60.6597 6.60812C60.6056 6.75946 60.4651 7.14863 60.3353 7.47293C60.2056 7.79723 60.065 8.1864 60.0109 8.33774C59.9569 8.48908 59.8163 8.87825 59.6866 9.20255C59.5568 9.52685 59.4162 9.91602 59.3622 10.0674C59.3081 10.2187 59.1675 10.6079 59.0378 10.9322C58.908 11.2565 58.7675 11.6456 58.7134 11.797C58.6594 11.9483 58.5188 12.3375 58.389 12.6618C58.2593 12.9861 58.1187 13.3753 58.0647 13.5266C58.0106 13.6779 57.87 14.0671 57.7403 14.3914C57.6105 14.7157 57.47 15.1049 57.4159 15.2562C57.3618 15.4076 57.2213 15.7967 57.0915 16.121C56.9618 16.4453 56.8212 16.8345 56.7671 16.9858C56.659 17.2993 56.4428 17.8723 56.1184 18.7155C55.9886 19.0398 55.8481 19.4289 55.794 19.5803C55.7399 19.7316 55.5994 20.1208 55.4696 20.4451C55.3399 20.7694 55.1993 21.1586 55.1452 21.3099C55.0912 21.4612 54.9506 21.8504 54.8209 22.1747C54.6911 22.499 54.5397 22.9206 54.4857 23.1152C54.3992 23.3963 54.1072 23.6665 53.9991 23.5584C53.9883 23.5368 53.9234 21.0721 53.8585 18.0669C53.7937 15.0616 53.7072 12.2402 53.6747 11.7862C53.599 10.8457 53.599 10.8349 54.4641 9.92683C54.756 9.61333 55.2317 9.09445 55.5237 8.77014C55.8048 8.44584 56.5617 7.61346 57.1888 6.93242C57.816 6.25138 58.6269 5.37576 58.9837 4.9866C59.3406 4.59743 60.0542 3.8083 60.5732 3.24617C61.0922 2.67323 61.7193 1.98138 61.968 1.71113C62.4546 1.15981 62.66 1.07333 62.5735 1.44088Z" fill="#463B24"/>
</svg>
