<svg width="94" height="50" viewBox="0 0 94 50" fill="none" xmlns="http://www.w3.org/2000/svg">
<path d="M50.0335 3.60982C49.7508 3.65333 49.4789 4.69474 48.9326 5.23721C48.533 5.62875 48.0342 5.60428 47.7691 6.08829C47.6685 6.2691 47.7012 6.57772 47.587 6.87411C47.3641 7.46686 46.5785 7.51989 46.5785 8.16568C46.5758 8.86312 47.2336 8.99637 47.8031 9.49124C48.2475 9.88958 48.291 10.1642 48.8293 10.3573C49.2887 10.5136 49.9723 10.0024 50.588 10.186C51.0936 10.3369 51.5775 10.4456 51.6916 10.965C51.7922 11.4436 51.6848 12.1859 51.0719 12.1002C50.8653 12.0771 49.9696 11.7753 48.8687 11.8922C47.5408 12.0431 46.0253 12.4768 45.8772 13.9574C45.7956 14.7853 46.8191 15.7615 47.8072 15.563C48.4908 15.4284 48.1674 14.6222 48.5398 14.2306C49.0277 13.729 51.7922 15.9817 54.3624 15.9817C55.4442 15.9817 56.2489 15.7085 57.048 14.871C57.1228 14.8071 57.2138 14.6698 57.3294 14.6616C57.4381 14.6698 57.6284 14.7772 57.6909 14.8234C59.7609 16.4875 61.3253 19.8252 68.9324 19.8646C70.0021 19.8701 71.2212 20.3812 72.2161 21.2894C73.1036 22.1106 73.6228 23.3872 74.1271 24.6829C74.8882 26.627 76.2528 28.5182 78.3214 30.6227C78.4342 30.7356 80.1372 32.0598 80.2732 32.159C80.2949 32.1726 80.42 32.4717 80.3765 32.639C80.3262 33.9006 80.1427 37.5701 82.8773 37.7359C83.546 37.7699 83.3707 37.2995 83.3707 36.9759C83.3693 36.3369 83.2524 35.702 83.5895 35.0481C84.0502 34.1481 82.6123 33.7334 82.6544 31.7879C82.6843 30.3372 81.4665 30.5847 80.8481 29.4794C80.492 28.839 80.1753 28.4991 80.1984 27.716C80.337 23.3084 79.2606 20.4125 78.7237 19.7015C78.3051 19.1644 77.9585 18.951 78.3418 18.7022C80.6238 17.1945 81.1417 15.7914 81.1417 15.7914C82.3554 12.9377 83.4468 10.3314 84.9513 9.18398C85.2544 8.94742 86.0319 8.36689 86.5089 8.13849C87.9129 7.47638 88.6523 7.07532 89.0601 6.67832C89.7056 6.04886 90.2153 4.73689 89.5969 3.94155C88.8276 2.95995 87.497 3.73897 86.9099 4.08702C82.7142 6.57772 82.0958 10.9718 80.6429 13.4951C79.4835 15.5113 77.5984 16.9919 75.913 17.1129C74.649 17.2067 73.2871 16.9511 71.9307 16.3556C68.6321 14.909 66.8271 13.041 66.4017 12.7107C65.5155 12.0268 58.6355 5.2712 53.0617 4.99521C53.0617 4.99521 52.3698 3.60982 52.1959 3.58671C51.7881 3.53504 51.3709 4.41468 51.0719 4.51663C50.7905 4.61045 50.3175 3.56359 50.0335 3.60982Z" fill="#463B24"/>
<path d="M25.4954 43.93C24.9708 43.9178 24.525 43.4868 24.525 42.9539L24.5263 25.5625H18.7961V44.7335C18.7961 45.673 19.5573 46.4398 20.491 46.4398H30.5066C31.4471 46.4398 32.1987 45.673 32.1987 44.7335V25.5625H26.474L26.4685 42.9539C26.4685 43.4868 26.0227 43.9178 25.4954 43.93Z" fill="#463B24"/>
<path d="M44.6811 25.5625H36.0084C34.9822 25.5625 34.1464 26.3973 34.1464 27.4346V46.4398H39.882V29.0062C39.8861 28.4719 40.3183 28.0491 40.851 28.0491C41.3865 28.0491 41.816 28.4624 41.8283 28.9913V46.4398H47.5408V28.9913C47.5476 28.4624 47.9771 28.0491 48.5112 28.0491C49.0413 28.0491 49.4789 28.4719 49.483 29.0062V46.4398H55.2186V27.4346C55.2186 26.3973 54.3814 25.5625 53.3552 25.5625H44.6811Z" fill="#463B24"/>
<path d="M11.1278 29.043C11.1319 28.4624 10.6589 28.0491 10.1574 28.0491H9.18424V38.6088H10.1574C10.663 38.6088 11.1319 38.2063 11.1278 37.6285V29.043ZM14.9729 41.1933H9.18424V46.4398H3.45679V25.5625H15.0095C16.0439 25.5625 16.8512 26.4027 16.8512 27.4428V39.313C16.8512 40.3544 16.0126 41.1933 14.9729 41.1933Z" fill="#463B24"/>
<path d="M74.8732 41.7711C73.722 41.7711 72.7557 42.7663 72.7557 43.9722C72.7557 45.1822 73.722 46.1692 74.9099 46.1692C76.0883 46.1692 77.0424 45.1822 77.0424 43.9722C77.0424 42.7635 76.0883 41.7711 74.9099 41.7711H74.8732ZM77.4529 43.9654C77.4529 45.3834 76.3166 46.5363 74.9099 46.5363C73.4882 46.5363 72.3466 45.3915 72.3466 43.9654C72.3466 42.5664 73.4882 41.3972 74.8678 41.3972C76.3166 41.3972 77.4529 42.5311 77.4529 43.9654Z" fill="#463B24"/>
<path d="M74.6449 43.8022C75.0431 43.8022 75.2525 43.6608 75.2525 43.3781C75.2525 43.1265 75.0499 42.9974 74.6626 42.9974H74.5484V43.8022H74.6449ZM76.1114 45.4527H75.4278L74.5484 44.2821V45.4527H73.9898V42.493H74.577C75.3748 42.493 75.7988 42.7948 75.7988 43.3713C75.7988 43.756 75.5487 44.0972 75.1994 44.1992L75.1587 44.2142L76.1114 45.4527Z" fill="#463B24"/>
<path d="M64.8345 38.6128V28.9994C64.821 28.4679 64.3928 28.06 63.8587 28.06C63.33 28.06 62.8923 28.4842 62.8883 29.0144V38.6128H64.8345ZM64.8345 46.4398V41.1987H62.8883V46.4398H57.1635V27.4346C57.1635 26.3973 57.9994 25.5625 59.0256 25.5625H68.6973C69.7261 25.5625 70.562 26.3973 70.562 27.4346V46.4398H64.8345Z" fill="#463B24"/>
</svg>
