<svg width="102" height="50" viewBox="0 0 102 50" fill="none" xmlns="http://www.w3.org/2000/svg">
<path d="M74.5766 18.696C82.8255 15.6373 88.2118 11.0438 88.5053 5.94797C88.5053 5.94797 86.3276 4.5339 79.2962 2.35323C73.1217 0.438271 68.4112 0 68.4112 0L68.4329 11.3538C68.4329 13.0504 67.6249 14.7821 66.0994 16.3153C61.4323 15.3655 56.2742 14.8325 50.8643 14.831H50.8607C45.4472 14.8325 40.2837 15.367 35.6112 16.3184C34.0857 14.7852 33.2758 13.0519 33.2758 11.3538L33.2957 0C33.2957 0 28.5888 0.438271 22.4107 2.35323C15.3793 4.5339 13.2052 5.94797 13.2052 5.94797C13.4969 11.0454 18.8851 15.6403 27.143 18.6991C18.8923 21.7578 13.506 26.3513 13.2143 31.4456C13.2143 31.4456 15.3902 32.8612 22.4216 35.0404C28.5979 36.9553 33.3066 37.3936 33.3066 37.3936L33.2849 26.0398C33.2849 24.3432 34.0929 22.6099 35.6202 21.0783C40.2873 22.0296 45.4436 22.5611 50.8535 22.5611C56.2688 22.5611 61.4359 22.0281 66.1066 21.0737C67.6321 22.6069 68.4402 24.3432 68.4402 26.0398L68.422 37.3936C68.422 37.3936 73.1308 36.9553 79.3071 35.0404C86.3385 32.8612 88.5144 31.4456 88.5144 31.4456C88.2209 26.3482 82.8327 21.7532 74.5766 18.696ZM50.8571 21.2508H50.8516L50.6977 21.2478C45.8132 21.2478 41.8309 20.2399 38.9104 18.6991C41.8309 17.1552 45.815 16.1458 50.7085 16.1458L50.8589 16.1443H50.8661L51.0201 16.1458C55.9064 16.1458 59.8869 17.1537 62.8074 18.6945C59.8869 20.2369 55.9028 21.2478 51.0111 21.2478" fill="#463B24"/>
<path d="M2.40791 49.9728C0.0417542 49.9728 8.38575e-05 48.4518 8.38575e-05 47.8654V45.0984C8.38575e-05 44.9304 -0.016222 44.7074 0.405917 44.7074H1.62885C2.02563 44.7074 2.00026 44.9456 2.00026 45.0984V47.8654C2.00026 48.0624 2.04374 48.5908 2.90433 48.5908H4.95523C5.79951 48.5908 5.84843 48.0624 5.84843 47.8654V45.0984C5.84843 44.9456 5.82488 44.7074 6.21984 44.7074H7.45183C7.89933 44.7074 7.85948 44.9456 7.85948 45.0984V47.8654C7.85948 48.4518 7.81781 49.9728 5.4426 49.9728" fill="#463B24"/>
<path d="M13.7402 49.6388C12.9049 48.6904 11.7128 47.4963 10.4971 46.2349V49.6036C10.4971 49.7502 10.5406 49.9732 10.1257 49.9732H8.9843C8.57122 49.9732 8.62014 49.7502 8.62014 49.6036V45.0987C8.62014 44.946 8.60202 44.7078 8.9843 44.7078H11.2091C11.8378 44.7078 12.7328 45.7752 13.3198 46.4792C13.7728 47.0168 14.6098 47.8246 15.1714 48.4308V45.0987C15.1714 44.946 15.1461 44.7078 15.561 44.7078H16.8002C17.1988 44.7078 17.1734 44.946 17.1734 45.0987V49.9732H14.8906C14.4014 49.9732 14.1859 50.0007 13.7402 49.6388Z" fill="#463B24"/>
<path d="M23.145 48.588C24.1451 48.588 24.0726 47.7787 24.0726 47.4091C24.0726 46.1676 23.6577 46.1187 22.9964 46.1187H19.853V48.588H23.145ZM17.9235 49.9746V44.7169H23.4367C23.7737 44.7169 26.0311 44.6833 26.0311 46.6822C26.0311 48.727 26.2956 49.9746 23.4856 49.9746H20.5143L19.8693 48.8736V49.9746" fill="#463B24"/>
<path d="M28.1907 44.7506H33.2691C33.7003 44.7506 33.6423 44.9873 33.6423 45.4271C33.6423 45.8363 33.7075 46.0669 33.2691 46.0669H29.256C29.1491 46.0669 28.7868 46.018 28.7868 46.3387C28.7868 46.6594 28.7125 46.7862 29.1165 46.7862H32.6657C32.6657 46.7862 33.1785 47.6093 33.2364 47.7482C33.3198 47.8734 33.3107 47.9925 32.9973 47.9925H29.3231L28.7524 47.058V48.4385C28.7524 48.7591 29.093 48.6965 29.1908 48.6965H33.3596C33.7745 48.6965 33.7401 48.9393 33.7401 49.3364C33.7401 49.764 33.7745 49.9991 33.3596 49.9991H28.082C27.6436 49.9991 26.7848 49.8877 26.7848 48.7317V45.8302C26.7848 45.5309 26.975 44.7506 28.1907 44.7506Z" fill="#463B24"/>
<path d="M39.4377 46.1039H36.9646C36.5534 46.1039 36.5679 46.223 36.5679 46.3284V47.2691H39.1152C40.349 47.2691 40.349 47.0095 40.349 46.7377C40.349 46.194 40.3001 46.1039 39.4377 46.1039ZM35.0134 44.7158H40.5718C41.3165 44.7158 42.3981 44.7097 42.3981 46.4032C42.3981 47.5119 42.1191 47.5669 41.523 47.9089C42.5249 48.0555 42.3927 49.1352 42.3927 49.6941C42.3927 49.9797 42.2695 49.9735 42.168 49.9735H40.5392C40.1986 49.9735 40.282 49.52 40.282 49.2833C40.282 48.6343 39.8526 48.6633 39.6859 48.6633H37.2871C37.057 48.3274 36.6095 47.5745 36.6095 47.5745V49.7567C36.6095 49.9461 36.3849 49.9735 36.3033 49.9735H34.6673C34.7561 49.9735 34.4988 49.9873 34.4988 49.7979V45.1694C34.4988 44.841 34.7724 44.7158 35.0134 44.7158Z" fill="#463B24"/>
<path d="M51.3076 46.2067L50.2821 47.7827L50.3727 47.859H52.2841L52.3838 47.7827C52.3167 47.6636 51.4906 46.3396 51.4072 46.1991L51.3076 46.2067ZM51.9689 44.7514C52.3747 44.7514 52.7697 44.9041 53.2009 45.6081C53.4926 46.109 55.5109 49.183 55.9312 49.8259V50H53.8296L53.2244 49.0792H50.6699C50.6699 49.0792 50.2405 48.25 50.1173 48.0209C49.9597 48.2362 49.1154 49.5892 48.8237 50H46.7166V49.8885C47.146 49.2059 50.0829 44.7514 50.0829 44.7514" fill="#463B24"/>
<path d="M61.4431 46.1039H58.97C58.5569 46.1039 58.5733 46.223 58.5733 46.3284V47.2691H61.1206C62.3544 47.2691 62.3544 47.0095 62.3544 46.7377C62.3544 46.194 62.3055 46.1039 61.4431 46.1039ZM57.0188 44.7158H62.5772C63.3219 44.7158 64.4053 44.7097 64.4053 46.4032C64.4053 47.5119 64.1263 47.5669 63.5284 47.9089C64.5285 48.0555 64.3962 49.1352 64.3962 49.6941C64.3962 49.9797 64.273 49.9735 64.1734 49.9735H62.5446C62.204 49.9735 62.2874 49.52 62.2874 49.2833C62.2874 48.6343 61.858 48.6633 61.6913 48.6633H59.2925C59.0606 48.3274 58.6131 47.5745 58.6131 47.5745V49.7567C58.6131 49.9461 58.3921 49.9735 58.3087 49.9735H56.6709C56.7615 49.9735 56.506 49.9873 56.506 49.7979V45.1694C56.506 44.841 56.7796 44.7158 57.0188 44.7158Z" fill="#463B24"/>
<path d="M69.2615 49.9728C68.8466 49.3177 67.6962 47.5111 66.9189 46.3277V49.6032C66.9189 49.7498 66.9425 49.9728 66.5493 49.9728H65.4224C65.0003 49.9728 65.0329 49.7498 65.0329 49.6032V45.0984C65.0329 44.9456 65.0093 44.7151 65.4224 44.7151H67.3664C67.6563 44.7151 68.0676 44.6586 68.5332 45.4404C68.881 46.0665 69.6184 47.3661 70.1221 48.0548C70.6421 47.3661 71.3958 46.0665 71.7436 45.4404C72.1984 44.6586 72.6024 44.7151 72.9249 44.7151H74.8598C75.2584 44.7151 75.2167 44.9456 75.2167 45.0984V49.6032C75.2167 49.7498 75.2729 49.9728 74.8598 49.9728H73.7275C73.3144 49.9728 73.347 49.7498 73.347 49.6032V46.3277C72.5625 47.5111 71.4193 49.3177 70.9881 49.9728" fill="#463B24"/>
<path d="M81.4193 48.6337C82.356 48.6337 82.3216 47.8198 82.3216 47.2746C82.3216 46.7859 82.4539 46.0193 81.2382 46.0193H79.1764C77.9698 46.0193 78.1111 46.7859 78.1111 47.2746C78.1111 47.8198 78.0531 48.6337 78.988 48.6337H81.4193ZM77.7143 49.9867C75.8699 49.9867 75.9515 48.3191 75.9515 47.241C75.9515 46.2499 75.8192 44.703 78.1274 44.6877H82.2238C84.5392 44.6877 84.3888 46.256 84.3888 47.241C84.3888 48.3191 84.4812 49.9867 82.6097 49.9867" fill="#463B24"/>
<path d="M87.4729 49.9728C85.1049 49.9728 85.0651 48.4518 85.0651 47.8654V45.0984C85.0651 44.9304 85.0488 44.7074 85.4709 44.7074H86.6957C87.0906 44.7074 87.0671 44.9456 87.0671 45.0984V47.8654C87.0671 48.0624 87.1087 48.5908 87.9693 48.5908H90.0202C90.8645 48.5908 90.9134 48.0624 90.9134 47.8654V45.0984C90.9134 44.9456 90.8881 44.7074 91.2848 44.7074H92.5168C92.9643 44.7074 92.9245 44.9456 92.9245 45.0984V47.8654C92.9245 48.4518 92.8828 49.9728 90.5076 49.9728" fill="#463B24"/>
<path d="M98.6619 46.1039H96.1889C95.7758 46.1039 95.7921 46.223 95.7921 46.3284V47.2691H98.3395C99.5733 47.2691 99.5733 47.0095 99.5733 46.7377C99.5733 46.194 99.5243 46.1039 98.6619 46.1039ZM94.2358 44.7158H99.7961C100.541 44.7158 101.626 44.7097 101.626 46.4032C101.626 47.5119 101.343 47.5669 100.747 47.9089C101.749 48.0555 101.617 49.1352 101.617 49.6941C101.617 49.9797 101.494 49.9735 101.392 49.9735H99.7635C99.4247 49.9735 99.5062 49.52 99.5062 49.2833C99.5062 48.6343 99.0768 48.6633 98.912 48.6633H96.5114C96.2813 48.3274 95.8338 47.5745 95.8338 47.5745V49.7567C95.8338 49.9461 95.6091 49.9735 95.5276 49.9735H93.8916C93.9804 49.9735 93.7249 49.9873 93.7249 49.7979V45.1694C93.7249 44.841 93.9985 44.7158 94.2358 44.7158Z" fill="#463B24"/>
</svg>
