<svg width="102" height="102" viewBox="0 0 102 102" fill="none" xmlns="http://www.w3.org/2000/svg">
<path d="M44.6461 94.441L43.7682 99.2463L40.9993 98.7405L41.093 98.2277L43.2539 98.6225L43.5296 97.1135L41.7057 96.7803L41.8007 96.2602L43.6246 96.5934L43.9431 94.8501L41.709 94.4419L41.804 93.9218L44.6461 94.441Z" fill="white"/>
<path d="M37.254 92.7221L35.022 94.5696L35.4141 97.2482L34.7745 97.0028L34.6037 95.5975C34.5826 95.4724 34.5661 95.3491 34.5542 95.2276C34.5377 95.1043 34.5205 94.9621 34.5025 94.801L34.4747 94.7903C34.3583 94.8998 34.2573 94.9967 34.1718 95.0809C34.0817 95.1633 33.9893 95.2448 33.8946 95.3255L32.8417 96.2614L32.2299 96.0268L34.3304 94.2724L33.8959 91.434L34.5356 91.6793L34.7309 93.1659C34.7485 93.3003 34.7675 93.4378 34.788 93.5786C34.802 93.7222 34.8194 93.8778 34.8403 94.0453L34.8681 94.0559C34.9863 93.9418 35.0986 93.836 35.2051 93.7386C35.3098 93.6458 35.4113 93.5545 35.5096 93.4646L36.6421 92.4874L37.254 92.7221Z" fill="white"/>
<path d="M29.3089 89.1758L26.7479 93.3354L25.5621 92.6054C25.2493 92.4128 25.0001 92.2069 24.8144 91.9876C24.6288 91.7684 24.5264 91.5275 24.5073 91.2651C24.4855 91.0069 24.5684 90.7256 24.7557 90.4212C25.0238 89.9858 25.3645 89.7496 25.7779 89.7126C26.1913 89.6756 26.6262 89.7977 27.0828 90.0787L27.7676 90.5004L28.7826 88.8517L29.3089 89.1758ZM27.5021 90.9316L26.8807 90.549C26.5172 90.3251 26.2071 90.2275 25.9505 90.2561C25.687 90.2863 25.4642 90.4493 25.282 90.7452C25.0973 91.0454 25.0627 91.3098 25.1785 91.5384C25.2874 91.7687 25.5236 91.9957 25.8871 92.2196L26.4832 92.5866L27.5021 90.9316Z" fill="white"/>
<path d="M22.6365 84.5073L19.3825 88.1505L18.9216 87.7388L21.8234 84.4899L20.2294 83.0663L20.5816 82.672L22.6365 84.5073Z" fill="white"/>
<path d="M16.3594 77.8054C16.6077 78.1279 16.7462 78.4786 16.7749 78.8576C16.8005 79.2326 16.7164 79.6075 16.5226 79.9823C16.3257 80.3532 16.0208 80.6976 15.6078 81.0156C15.1948 81.3337 14.7878 81.5374 14.3868 81.6269C13.9788 81.7155 13.6008 81.6965 13.2526 81.5698C12.8975 81.4423 12.5958 81.2172 12.3474 80.8947C12.0961 80.5682 11.9556 80.219 11.926 79.847C11.8926 79.4781 11.9708 79.1077 12.1607 78.7359C12.3466 78.3672 12.6461 78.0238 13.0591 77.7058C13.4721 77.3878 13.8845 77.183 14.2964 77.0913C14.7083 76.9997 15.0923 77.0142 15.4483 77.1348C15.8043 77.2554 16.108 77.4789 16.3594 77.8054ZM15.9287 78.137C15.75 77.905 15.5306 77.7543 15.2706 77.6852C15.0036 77.6151 14.7158 77.6237 14.4071 77.711C14.0945 77.8014 13.7769 77.9707 13.4543 78.2191C12.9745 78.5886 12.6752 78.9851 12.5565 79.4086C12.4377 79.8321 12.5116 80.2169 12.7781 80.563C13.0447 80.9092 13.3978 81.0789 13.8376 81.0724C14.2774 81.0658 14.7372 80.8778 15.2171 80.5082C15.5396 80.2599 15.7845 79.9961 15.9517 79.717C16.115 79.4409 16.1969 79.1648 16.1974 78.8887C16.1939 78.6157 16.1044 78.3652 15.9287 78.137Z" fill="white"/>
<path d="M12.3914 71.9424L8.0191 74.1206L7.33843 72.7542C7.19012 72.4565 7.0984 72.1722 7.06328 71.9013C7.02371 71.6326 7.06292 71.3885 7.18091 71.1689C7.29224 70.947 7.49898 70.7608 7.80113 70.6103C8.13883 70.4421 8.45638 70.3948 8.75376 70.4685C9.0467 70.5444 9.3062 70.7146 9.53226 70.9792L10.884 68.9165L11.1961 69.543L9.87448 71.5158L10.2696 72.309L12.1158 71.3892L12.3914 71.9424ZM9.81637 72.5347L9.45113 71.8016C9.28069 71.4594 9.08121 71.2316 8.85271 71.118C8.61976 71.0067 8.3611 71.0218 8.07672 71.1635C7.7879 71.3074 7.6311 71.4992 7.60633 71.7389C7.58156 71.9787 7.65439 72.2696 7.82484 72.6117L8.19007 73.3449L9.81637 72.5347Z" fill="white"/>
<path d="M9.18306 64.4582L4.48389 65.7921L3.71524 63.0844L4.21667 62.942L4.81655 65.0552L6.2922 64.6363L5.78587 62.8526L6.29447 62.7083L6.8008 64.4919L8.50568 64.008L7.88547 61.8231L8.39407 61.6788L9.18306 64.4582Z" fill="white"/>
<path d="M7.02779 50.5966L2.15199 50.2997L2.19726 49.5564L4.85571 48.7783C5.02781 48.7291 5.20223 48.6825 5.37897 48.6386C5.55107 48.5894 5.72316 48.5402 5.89526 48.491L5.89707 48.4613C5.73222 48.3916 5.56706 48.3268 5.40161 48.267C5.2315 48.2019 5.06402 48.1345 4.89917 48.0648L2.35388 46.9847L2.3996 46.234L7.2754 46.531L7.24009 47.1107L4.55691 46.9473C4.33889 46.934 4.09917 46.9095 3.83776 46.8737C3.57139 46.8375 3.33213 46.8056 3.11996 46.7777L3.11815 46.8075L4.20208 47.2614L6.67304 48.3369L6.64814 48.7457L4.06492 49.5135L2.93392 49.8325L2.93211 49.8623C3.14608 49.8604 3.38731 49.8601 3.65579 49.8616C3.91962 49.8577 4.16054 49.8625 4.37857 49.8758L7.06174 50.0392L7.02779 50.5966Z" fill="white"/>
<path d="M8.74813 39.3295C8.63888 39.7216 8.4412 40.0427 8.15508 40.2928C7.87029 40.5381 7.5198 40.6956 7.10362 40.7651C6.68876 40.8299 6.23027 40.7924 5.72815 40.6525C5.22602 40.5126 4.81894 40.309 4.50692 40.0417C4.19144 39.7683 3.98003 39.4543 3.87268 39.0997C3.76188 38.739 3.76111 38.3626 3.87036 37.9705C3.98094 37.5736 4.17624 37.2518 4.45624 37.0051C4.73146 36.7571 5.07478 36.5977 5.48618 36.5268C5.89281 36.4546 6.34718 36.4884 6.84931 36.6283C7.35143 36.7682 7.76262 36.9755 8.08288 37.2503C8.40314 37.525 8.62173 37.841 8.73864 38.1982C8.85555 38.5555 8.85872 38.9325 8.74813 39.3295ZM8.22449 39.1836C8.3031 38.9014 8.29214 38.6355 8.19162 38.3859C8.08765 38.1302 7.90819 37.905 7.65324 37.7103C7.39351 37.5143 7.06757 37.3616 6.67544 37.2524C6.09202 37.0898 5.59523 37.088 5.18509 37.2468C4.77494 37.4057 4.51125 37.6955 4.394 38.1164C4.27676 38.5372 4.35259 38.9216 4.62151 39.2697C4.89043 39.6177 5.3166 39.873 5.90002 40.0356C6.29215 40.1448 6.65006 40.1827 6.97375 40.1492C7.29265 40.1144 7.56271 40.0144 7.78393 39.8493C8.00036 39.6828 8.14722 39.4609 8.22449 39.1836Z" fill="white"/>
<path d="M11.0618 32.6387L6.69719 30.445L7.38272 29.0811C7.53208 28.7839 7.70465 28.54 7.90041 28.3495C8.09174 28.1568 8.31066 28.0418 8.55717 28.0046C8.80147 27.9607 9.07443 28.0145 9.37605 28.1661C9.71315 28.3355 9.94135 28.5614 10.0606 28.8436C10.1755 29.1235 10.1948 29.4333 10.1186 29.7728L12.5799 29.6181L12.2656 30.2435L9.89428 30.3684L9.49634 31.1602L11.3393 32.0865L11.0618 32.6387ZM9.04392 30.9328L9.41176 30.2009C9.58342 29.8594 9.6462 29.5631 9.60011 29.3122C9.54957 29.059 9.38237 28.861 9.09849 28.7183C8.81018 28.5734 8.56267 28.5629 8.35594 28.6868C8.14921 28.8107 7.96002 29.0434 7.78836 29.385L7.42052 30.1168L9.04392 30.9328Z" fill="white"/>
<path d="M15.1285 25.584L11.2437 22.6226L12.95 20.3841L13.3646 20.7001L12.0329 22.4471L13.2528 23.377L14.3769 21.9024L14.7973 22.2229L13.6733 23.6975L15.0827 24.7719L16.4596 22.9657L16.88 23.2862L15.1285 25.584Z" fill="white"/>
<path d="M25.235 15.5117C25.1343 15.5843 25.023 15.6124 24.9012 15.5962C24.7805 15.573 24.681 15.507 24.6026 15.3983C24.5185 15.2814 24.486 15.1641 24.5051 15.0463C24.5254 14.9216 24.5859 14.823 24.6866 14.7504C24.7833 14.6808 24.892 14.6576 25.0127 14.6807C25.1345 14.697 25.2375 14.7635 25.3216 14.8803C25.4 14.9891 25.429 15.1058 25.4087 15.2306C25.3896 15.3484 25.3317 15.4421 25.235 15.5117Z" fill="white"/>
<path d="M37.1089 9.39712C36.7237 9.52864 36.3463 9.55257 35.9767 9.4689C35.6103 9.37893 35.2769 9.18589 34.9765 8.88979C34.6807 8.59208 34.4471 8.19188 34.2755 7.68919C34.1054 7.1912 34.0488 6.73321 34.1054 6.31521C34.162 5.89721 34.3125 5.53897 34.5568 5.2405C34.8011 4.94202 35.1182 4.72622 35.5082 4.5931C35.7901 4.49687 36.0591 4.47059 36.3153 4.51426C36.5699 4.55324 36.7886 4.62544 36.9715 4.73087L36.7843 5.21967C36.6172 5.12982 36.4426 5.07143 36.2603 5.04449C36.078 5.01756 35.8882 5.03777 35.6908 5.10513C35.3996 5.20457 35.17 5.3695 35.0021 5.59992C34.8373 5.82403 34.7412 6.09553 34.7136 6.41442C34.6908 6.7317 34.7452 7.08296 34.8767 7.4682C35.0082 7.85344 35.1816 8.1693 35.3969 8.41578C35.6106 8.65756 35.8496 8.81989 36.1139 8.90275C36.383 8.984 36.6631 8.97491 36.9544 8.87547C37.1752 8.80009 37.3565 8.68575 37.4982 8.53244C37.64 8.37914 37.7564 8.19776 37.8475 7.98831L38.2968 8.24408C38.1857 8.51805 38.0352 8.75305 37.8451 8.94909C37.655 9.14513 37.4096 9.29447 37.1089 9.39712Z" fill="white"/>
<path d="M43.1764 7.72318L42.4783 2.88848L43.9891 2.67032C44.3183 2.62279 44.617 2.6248 44.8853 2.67634C45.1529 2.72298 45.3724 2.83673 45.544 3.0176C45.7198 3.19285 45.8318 3.44753 45.88 3.78163C45.9339 4.15504 45.8793 4.4714 45.7161 4.7307C45.5522 4.98509 45.3093 5.17817 44.9872 5.30994L46.5224 7.24003L45.8296 7.34007L44.3703 5.46673L43.4933 5.59337L43.7881 7.63485L43.1764 7.72318ZM43.4209 5.09221L44.2316 4.97515C44.61 4.92052 44.8889 4.80251 45.0683 4.62111C45.2471 4.43479 45.3137 4.18441 45.2683 3.86996C45.2222 3.55059 45.0892 3.34158 44.8693 3.24292C44.6494 3.14427 44.3503 3.12225 43.972 3.17688L43.1613 3.29394L43.4209 5.09221Z" fill="white"/>
<path d="M51.2892 7.02203L51.4952 2.14154L54.3074 2.26023L54.2854 2.78101L52.0907 2.68839L52.026 4.22098L53.8785 4.29916L53.8562 4.82738L52.0037 4.7492L51.929 6.51987L54.1981 6.61563L54.1758 7.14386L51.2892 7.02203Z" fill="white"/>
<path d="M60.8288 5.35764L60.4358 6.03093L61.8648 6.36216L61.8081 5.58463C61.7827 5.29847 61.7615 5.01585 61.7447 4.73676C61.729 4.45285 61.7144 4.16409 61.7009 3.8705L61.6719 3.86378C61.5354 4.12262 61.3977 4.37606 61.2587 4.62411C61.1208 4.86732 60.9775 5.11183 60.8288 5.35764ZM58.7609 7.68362L61.4743 3.2982L62.1562 3.45625L62.6636 8.5882L62.018 8.43855L61.9045 6.88349L60.1708 6.48164L59.3775 7.82653L58.7609 7.68362Z" fill="white"/>
<path d="M68.134 10.5258L69.8867 6.52972L68.5365 5.9375L68.7459 5.46015L72.0191 6.89584L71.8098 7.37319L70.4595 6.78097L68.7068 10.7771L68.134 10.5258Z" fill="white"/>
<path d="M74.4647 13.8108L77.2185 9.77619L79.5433 11.363L79.2495 11.7935L77.4351 10.5551L76.5704 11.8221L78.1018 12.8674L77.8037 13.3041L76.2723 12.2588L75.2732 13.7225L77.149 15.0029L76.851 15.4396L74.4647 13.8108Z" fill="white"/>
<path d="M80.926 18.7667L84.406 15.3387L85.263 16.2088C85.7925 16.7463 86.0446 17.3029 86.0192 17.8784C85.9973 18.4504 85.7105 19.0081 85.1588 19.5516C84.6036 20.0985 84.0345 20.3838 83.4516 20.4075C82.8722 20.4347 82.3229 20.1849 81.8038 19.6579L80.926 18.7667ZM81.7204 18.8516L82.1123 19.2495C82.513 19.6562 82.9346 19.8402 83.3772 19.8014C83.8268 19.7627 84.2709 19.5273 84.7094 19.0954C85.148 18.6634 85.3829 18.2299 85.4143 17.7948C85.4527 17.3598 85.2715 16.939 84.8709 16.5323L84.479 16.1344L81.7204 18.8516Z" fill="white"/>
<path d="M89.8844 30.4974L94.2853 28.3777L94.9154 29.6859C95.0598 29.9855 95.15 30.2644 95.1862 30.5225C95.2245 30.7851 95.1955 31.0167 95.0993 31.2173C95.0052 31.4224 94.8285 31.5874 94.5691 31.7124C94.3499 31.8179 94.124 31.8579 93.8912 31.8322C93.6651 31.8089 93.4679 31.7083 93.2995 31.5304L93.2727 31.5433C93.3506 31.8309 93.3422 32.0994 93.2474 32.3489C93.1549 32.6029 92.9565 32.8031 92.6524 32.9496C92.3662 33.0875 92.0924 33.1312 91.8312 33.0807C91.5721 33.0347 91.3352 32.909 91.1207 32.7038C90.9061 32.4986 90.7191 32.2305 90.5597 31.8995L89.8844 30.4974ZM92.6818 29.836L92.9952 30.4868C93.1762 30.8625 93.3714 31.1018 93.5808 31.2048C93.7902 31.3078 94.0067 31.3055 94.2303 31.1978C94.4852 31.075 94.6244 30.9005 94.6477 30.6744C94.6732 30.4527 94.603 30.1697 94.4371 29.8253L94.1107 29.1478L92.6818 29.836ZM90.5954 30.841L90.9637 31.6058C91.1468 31.9859 91.3583 32.2477 91.5982 32.3911C91.8426 32.5324 92.1124 32.532 92.4076 32.3898C92.6804 32.2584 92.8288 32.0574 92.8528 31.7869C92.8834 31.5187 92.8061 31.1923 92.6208 30.8076L92.2524 30.0428L90.5954 30.841Z" fill="white"/>
<path d="M93.1939 38.789L95.0159 38.2813L97.5059 36.0648L97.6837 36.7032L96.5265 37.6827C96.3757 37.8072 96.2266 37.9286 96.0792 38.0469C95.9331 38.1701 95.7823 38.2946 95.6267 38.4204L95.6347 38.4491C95.8343 38.4811 96.0291 38.5144 96.2191 38.5491C96.4091 38.5837 96.6002 38.613 96.7923 38.6367L98.2873 38.8695L98.4611 39.4936L95.1838 38.8839L93.3618 39.3915L93.1939 38.789Z" fill="white"/>
<path d="M94.9731 51.171L99.8499 51.4506L99.8073 52.194L97.1516 52.9815C96.9797 53.0313 96.8055 53.0785 96.6289 53.1231C96.457 53.1729 96.2851 53.2227 96.1131 53.2725L96.1114 53.3023C96.2765 53.3714 96.4419 53.4356 96.6076 53.4948C96.7779 53.5593 96.9456 53.6261 97.1107 53.6952L99.6598 54.7662L99.6168 55.5171L94.74 55.2375L94.7732 54.6576L97.457 54.8115C97.675 54.824 97.9148 54.8477 98.1764 54.8825C98.4429 54.9177 98.6822 54.9488 98.8945 54.9759L98.8962 54.9462L97.8107 54.4961L95.3359 53.4293L95.3593 53.0205L97.9398 52.2435L99.0697 51.9205L99.0714 51.8907C98.8574 51.8934 98.6162 51.8945 98.3477 51.894C98.0839 51.8988 97.843 51.8949 97.6249 51.8824L94.9411 51.7285L94.9731 51.171Z" fill="white"/>
<path d="M96.2668 62.2432L95.6064 61.8289L95.2297 63.2466L96.0086 63.2148C96.2955 63.1985 96.5786 63.1864 96.8581 63.1785C97.1424 63.1719 97.4314 63.1665 97.7253 63.1624L97.7329 63.1336C97.4786 62.989 97.2297 62.8432 96.9862 62.6964C96.7475 62.5507 96.5077 62.3997 96.2668 62.2432ZM94.0081 60.1021L98.3046 62.9542L98.1248 63.6307L92.9792 63.9739L93.1494 63.3334L94.7073 63.2696L95.1644 61.5496L93.8455 60.7138L94.0081 60.1021Z" fill="white"/>
<path d="M91.4485 68.1632L91.7845 68.3236L94.28 72.3613L95.2871 70.2511L95.7575 70.4756L94.4168 73.2847L94.0875 73.1275L91.5952 69.0831L90.4759 71.4285L89.9987 71.2008L91.4485 68.1632Z" fill="white"/>
<path d="M86.9115 76.238L88.4482 77.3407L91.7355 77.8942L91.3491 78.4326L89.8608 78.1437C89.6693 78.104 89.4813 78.0638 89.2967 78.023C89.1092 77.9862 88.9177 77.9465 88.7222 77.904L88.7048 77.9282C88.8048 78.1038 88.9008 78.2766 88.9928 78.4464C89.0848 78.6163 89.1816 78.7836 89.2834 78.9483L90.0379 80.2596L89.6602 80.786L88.0835 77.8489L86.5468 76.7461L86.9115 76.238Z" fill="white"/>
<path d="M84.0296 83.9073L83.6762 83.2124L82.6242 84.2349L83.3088 84.608C83.5632 84.7415 83.8122 84.8767 84.056 85.0135C84.3033 85.154 84.554 85.2979 84.8082 85.4455L84.8296 85.4247C84.6857 85.1699 84.5472 84.9169 84.4138 84.6658C84.2839 84.4182 84.1559 84.1654 84.0296 83.9073ZM83.1928 80.9096L85.4121 85.5646L84.9102 86.0525L80.3201 83.7019L80.7953 83.24L82.1644 83.9861L83.4406 82.7457L82.7389 81.3508L83.1928 80.9096Z" fill="white"/>
<path d="M76.5742 86.6937L79.2741 90.7646L78.002 91.6083C77.7248 91.7921 77.4539 91.9181 77.1894 91.9864C76.9277 92.0587 76.6805 92.0498 76.4481 91.9598C76.2142 91.8766 76.004 91.6944 75.8174 91.4131C75.6089 91.0986 75.5229 90.7893 75.5594 90.4851C75.5987 90.1851 75.7356 89.9066 75.9703 89.6497L73.7569 88.5622L74.3402 88.1753L76.4607 89.244L77.1992 88.7542L76.0592 87.0353L76.5742 86.6937ZM77.4791 89.1762L76.7965 89.6289C76.4779 89.8402 76.2763 90.0662 76.1918 90.307C76.11 90.5519 76.1569 90.8067 76.3325 91.0715C76.5108 91.3404 76.7205 91.4724 76.9614 91.4674C77.2024 91.4625 77.4821 91.3544 77.8007 91.1431L78.4833 90.6904L77.4791 89.1762Z" fill="white"/>
<path d="M63.7252 92.8978C63.8441 92.8623 63.9584 92.8722 64.0682 92.9275C64.1747 92.9889 64.2471 93.0839 64.2855 93.2123C64.3267 93.3502 64.3189 93.4717 64.2622 93.5767C64.2022 93.6879 64.1127 93.7613 63.9938 93.7968C63.8797 93.8309 63.7694 93.8173 63.6629 93.7558C63.5531 93.7005 63.4776 93.6039 63.4364 93.466C63.398 93.3376 63.4089 93.2177 63.4689 93.1065C63.5256 93.0015 63.611 92.932 63.7252 92.8978Z" fill="white"/>
</svg>
